<mxfile host="app.diagrams.net" modified="2024-05-28T14:47:51.877Z" agent="Mozilla/5.0 (Windows NT 10.0; Win64; x64) AppleWebKit/537.36 (KHTML, like Gecko) Chrome/121.0.0.0 Safari/537.36" etag="JzVAKQLnAq0oeJDWw6C7" version="24.4.9" type="device">
  <diagram name="Página-1" id="dKwEbfN77uNNyOMGRZaD">
    <mxGraphModel dx="2514" dy="920" grid="1" gridSize="10" guides="1" tooltips="1" connect="1" arrows="1" fold="1" page="1" pageScale="1" pageWidth="827" pageHeight="1169" background="#FFCCE6" math="0" shadow="0">
      <root>
        <mxCell id="0" />
        <mxCell id="1" parent="0" />
        <mxCell id="wcODjkgg840wI776Qi8B-85" value="" style="edgeStyle=orthogonalEdgeStyle;rounded=0;orthogonalLoop=1;jettySize=auto;html=1;" parent="1" source="VYiEM14LJb83dmkJ5VDQ-42" target="VYiEM14LJb83dmkJ5VDQ-43" edge="1">
          <mxGeometry relative="1" as="geometry" />
        </mxCell>
        <mxCell id="VYiEM14LJb83dmkJ5VDQ-42" value="INÍCIO" style="ellipse;whiteSpace=wrap;html=1;fillColor=#d80073;strokeColor=#FF99CC;fontColor=#ffffff;shadow=1;" parent="1" vertex="1">
          <mxGeometry x="-40" y="160" width="120" height="80" as="geometry" />
        </mxCell>
        <mxCell id="wcODjkgg840wI776Qi8B-86" value="" style="edgeStyle=orthogonalEdgeStyle;rounded=0;orthogonalLoop=1;jettySize=auto;html=1;" parent="1" source="VYiEM14LJb83dmkJ5VDQ-43" target="VYiEM14LJb83dmkJ5VDQ-45" edge="1">
          <mxGeometry relative="1" as="geometry" />
        </mxCell>
        <mxCell id="VYiEM14LJb83dmkJ5VDQ-43" value="LISTAR CLIENTE" style="rounded=0;whiteSpace=wrap;html=1;fillColor=#d80073;strokeColor=#FF99CC;fontColor=#ffffff;shadow=1;" parent="1" vertex="1">
          <mxGeometry x="165" y="170" width="120" height="60" as="geometry" />
        </mxCell>
        <mxCell id="wcODjkgg840wI776Qi8B-87" style="edgeStyle=orthogonalEdgeStyle;rounded=0;orthogonalLoop=1;jettySize=auto;html=1;exitX=0.5;exitY=1;exitDx=0;exitDy=0;" parent="1" source="VYiEM14LJb83dmkJ5VDQ-45" target="VYiEM14LJb83dmkJ5VDQ-47" edge="1">
          <mxGeometry relative="1" as="geometry" />
        </mxCell>
        <mxCell id="VYiEM14LJb83dmkJ5VDQ-45" value="BUSCAR CLIENTE&amp;nbsp;" style="rounded=0;whiteSpace=wrap;html=1;fillColor=#d80073;strokeColor=#FF99CC;fontColor=#ffffff;shadow=1;" parent="1" vertex="1">
          <mxGeometry x="385" y="170" width="120" height="60" as="geometry" />
        </mxCell>
        <mxCell id="wcODjkgg840wI776Qi8B-88" value="SIM" style="edgeStyle=orthogonalEdgeStyle;rounded=0;orthogonalLoop=1;jettySize=auto;html=1;entryX=0.5;entryY=0;entryDx=0;entryDy=0;" parent="1" source="VYiEM14LJb83dmkJ5VDQ-47" target="VYiEM14LJb83dmkJ5VDQ-70" edge="1">
          <mxGeometry x="0.2672" relative="1" as="geometry">
            <mxPoint as="offset" />
          </mxGeometry>
        </mxCell>
        <mxCell id="wcODjkgg840wI776Qi8B-89" value="NÃO" style="edgeStyle=orthogonalEdgeStyle;rounded=0;orthogonalLoop=1;jettySize=auto;html=1;entryX=0.5;entryY=0;entryDx=0;entryDy=0;" parent="1" source="VYiEM14LJb83dmkJ5VDQ-47" target="VYiEM14LJb83dmkJ5VDQ-49" edge="1">
          <mxGeometry relative="1" as="geometry" />
        </mxCell>
        <mxCell id="VYiEM14LJb83dmkJ5VDQ-47" value="CLIENTE CADASTRADO?" style="rhombus;whiteSpace=wrap;html=1;rounded=0;fillColor=#d80073;strokeColor=#FF99CC;fontColor=#ffffff;shadow=1;" parent="1" vertex="1">
          <mxGeometry x="390" y="280" width="110" height="100" as="geometry" />
        </mxCell>
        <mxCell id="wcODjkgg840wI776Qi8B-75" style="edgeStyle=orthogonalEdgeStyle;rounded=0;orthogonalLoop=1;jettySize=auto;html=1;entryX=0.5;entryY=0;entryDx=0;entryDy=0;" parent="1" source="VYiEM14LJb83dmkJ5VDQ-49" target="wcODjkgg840wI776Qi8B-72" edge="1">
          <mxGeometry relative="1" as="geometry" />
        </mxCell>
        <mxCell id="wcODjkgg840wI776Qi8B-76" style="edgeStyle=orthogonalEdgeStyle;rounded=0;orthogonalLoop=1;jettySize=auto;html=1;entryX=0.5;entryY=0;entryDx=0;entryDy=0;" parent="1" target="wcODjkgg840wI776Qi8B-70" edge="1">
          <mxGeometry relative="1" as="geometry">
            <mxPoint x="340" y="550" as="targetPoint" />
            <mxPoint x="565" y="500" as="sourcePoint" />
          </mxGeometry>
        </mxCell>
        <mxCell id="wcODjkgg840wI776Qi8B-77" style="edgeStyle=orthogonalEdgeStyle;rounded=0;orthogonalLoop=1;jettySize=auto;html=1;entryX=0.5;entryY=0;entryDx=0;entryDy=0;" parent="1" target="wcODjkgg840wI776Qi8B-71" edge="1">
          <mxGeometry relative="1" as="geometry">
            <mxPoint x="565" y="500" as="sourcePoint" />
          </mxGeometry>
        </mxCell>
        <mxCell id="wcODjkgg840wI776Qi8B-78" style="edgeStyle=orthogonalEdgeStyle;rounded=0;orthogonalLoop=1;jettySize=auto;html=1;entryX=0.5;entryY=0;entryDx=0;entryDy=0;" parent="1" target="wcODjkgg840wI776Qi8B-74" edge="1">
          <mxGeometry relative="1" as="geometry">
            <mxPoint x="565" y="500" as="sourcePoint" />
          </mxGeometry>
        </mxCell>
        <mxCell id="wcODjkgg840wI776Qi8B-79" style="edgeStyle=orthogonalEdgeStyle;rounded=0;orthogonalLoop=1;jettySize=auto;html=1;" parent="1" target="wcODjkgg840wI776Qi8B-73" edge="1">
          <mxGeometry relative="1" as="geometry">
            <mxPoint x="570" y="500" as="sourcePoint" />
          </mxGeometry>
        </mxCell>
        <mxCell id="wcODjkgg840wI776Qi8B-142" style="edgeStyle=orthogonalEdgeStyle;rounded=0;orthogonalLoop=1;jettySize=auto;html=1;entryX=0.5;entryY=0;entryDx=0;entryDy=0;" parent="1" source="VYiEM14LJb83dmkJ5VDQ-49" target="wcODjkgg840wI776Qi8B-141" edge="1">
          <mxGeometry relative="1" as="geometry">
            <Array as="points">
              <mxPoint x="565" y="500" />
              <mxPoint x="930" y="500" />
            </Array>
          </mxGeometry>
        </mxCell>
        <mxCell id="VYiEM14LJb83dmkJ5VDQ-49" value="CADASTRAR CLIENTE" style="whiteSpace=wrap;html=1;rounded=0;fillColor=#d80073;strokeColor=#A50040;fontColor=#ffffff;shadow=1;" parent="1" vertex="1">
          <mxGeometry x="505" y="407" width="120" height="60" as="geometry" />
        </mxCell>
        <mxCell id="wcODjkgg840wI776Qi8B-92" value="SIM" style="edgeStyle=orthogonalEdgeStyle;rounded=0;orthogonalLoop=1;jettySize=auto;html=1;entryX=1;entryY=0.5;entryDx=0;entryDy=0;exitX=1;exitY=0.5;exitDx=0;exitDy=0;" parent="1" source="VYiEM14LJb83dmkJ5VDQ-54" target="VYiEM14LJb83dmkJ5VDQ-67" edge="1">
          <mxGeometry x="-0.7473" relative="1" as="geometry">
            <mxPoint as="offset" />
          </mxGeometry>
        </mxCell>
        <mxCell id="wcODjkgg840wI776Qi8B-100" value="NÃO" style="edgeStyle=orthogonalEdgeStyle;rounded=0;orthogonalLoop=1;jettySize=auto;html=1;" parent="1" source="VYiEM14LJb83dmkJ5VDQ-54" target="VYiEM14LJb83dmkJ5VDQ-59" edge="1">
          <mxGeometry relative="1" as="geometry" />
        </mxCell>
        <mxCell id="VYiEM14LJb83dmkJ5VDQ-54" value="DADOS VÁLIDOS?" style="rhombus;whiteSpace=wrap;html=1;rounded=0;fillColor=#d80073;strokeColor=#FF99CC;fontColor=#ffffff;shadow=1;" parent="1" vertex="1">
          <mxGeometry x="1010" y="500" width="80" height="80" as="geometry" />
        </mxCell>
        <mxCell id="wcODjkgg840wI776Qi8B-102" style="edgeStyle=orthogonalEdgeStyle;rounded=0;orthogonalLoop=1;jettySize=auto;html=1;entryX=0;entryY=1;entryDx=0;entryDy=0;" parent="1" source="VYiEM14LJb83dmkJ5VDQ-59" target="VYiEM14LJb83dmkJ5VDQ-70" edge="1">
          <mxGeometry relative="1" as="geometry">
            <mxPoint x="1050" y="380" as="sourcePoint" />
            <mxPoint x="138.03500000000008" y="699.97" as="targetPoint" />
            <Array as="points">
              <mxPoint x="1220" y="360" />
              <mxPoint x="1220" y="950" />
              <mxPoint x="136" y="950" />
            </Array>
          </mxGeometry>
        </mxCell>
        <mxCell id="VYiEM14LJb83dmkJ5VDQ-59" value="MOSTRAR ERRO" style="whiteSpace=wrap;html=1;rounded=0;fillColor=#d80073;strokeColor=#FF99CC;fontColor=#ffffff;glass=0;shadow=1;" parent="1" vertex="1">
          <mxGeometry x="990" y="327" width="120" height="60" as="geometry" />
        </mxCell>
        <mxCell id="wcODjkgg840wI776Qi8B-95" style="edgeStyle=orthogonalEdgeStyle;rounded=0;orthogonalLoop=1;jettySize=auto;html=1;entryX=0;entryY=0.5;entryDx=0;entryDy=0;" parent="1" source="VYiEM14LJb83dmkJ5VDQ-62" target="VYiEM14LJb83dmkJ5VDQ-70" edge="1">
          <mxGeometry relative="1" as="geometry" />
        </mxCell>
        <mxCell id="VYiEM14LJb83dmkJ5VDQ-62" value="ATUALIZAR CLIENTE&amp;nbsp;" style="whiteSpace=wrap;html=1;rounded=0;fillColor=#d80073;fontColor=#ffffff;strokeColor=#FF99CC;shadow=1;" parent="1" vertex="1">
          <mxGeometry x="-120" y="450" width="120" height="60" as="geometry" />
        </mxCell>
        <mxCell id="wcODjkgg840wI776Qi8B-94" value="" style="edgeStyle=orthogonalEdgeStyle;rounded=0;orthogonalLoop=1;jettySize=auto;html=1;" parent="1" source="VYiEM14LJb83dmkJ5VDQ-65" target="VYiEM14LJb83dmkJ5VDQ-70" edge="1">
          <mxGeometry relative="1" as="geometry" />
        </mxCell>
        <mxCell id="VYiEM14LJb83dmkJ5VDQ-65" value="EXCLUIR CLIENTE&amp;nbsp;" style="rounded=0;whiteSpace=wrap;html=1;fillColor=#d80073;fontColor=#ffffff;strokeColor=#FF99CC;glass=0;shadow=1;" parent="1" vertex="1">
          <mxGeometry x="-120" y="610" width="120" height="60" as="geometry" />
        </mxCell>
        <mxCell id="VYiEM14LJb83dmkJ5VDQ-67" value="FIM" style="ellipse;whiteSpace=wrap;html=1;fillColor=#d80073;fontColor=#ffffff;strokeColor=#FF99CC;shadow=1;" parent="1" vertex="1">
          <mxGeometry x="240" y="770" width="120" height="80" as="geometry" />
        </mxCell>
        <mxCell id="wcODjkgg840wI776Qi8B-96" value="" style="edgeStyle=orthogonalEdgeStyle;rounded=0;orthogonalLoop=1;jettySize=auto;html=1;" parent="1" source="VYiEM14LJb83dmkJ5VDQ-70" target="VYiEM14LJb83dmkJ5VDQ-67" edge="1">
          <mxGeometry relative="1" as="geometry" />
        </mxCell>
        <mxCell id="wcODjkgg840wI776Qi8B-104" value="SIM" style="edgeLabel;html=1;align=center;verticalAlign=middle;resizable=0;points=[];" parent="wcODjkgg840wI776Qi8B-96" vertex="1" connectable="0">
          <mxGeometry x="0.386" y="1" relative="1" as="geometry">
            <mxPoint as="offset" />
          </mxGeometry>
        </mxCell>
        <mxCell id="wcODjkgg840wI776Qi8B-97" style="edgeStyle=orthogonalEdgeStyle;rounded=0;orthogonalLoop=1;jettySize=auto;html=1;entryX=1;entryY=0.5;entryDx=0;entryDy=0;exitX=0.5;exitY=1;exitDx=0;exitDy=0;" parent="1" source="VYiEM14LJb83dmkJ5VDQ-70" target="VYiEM14LJb83dmkJ5VDQ-45" edge="1">
          <mxGeometry relative="1" as="geometry">
            <mxPoint x="163" y="700" as="sourcePoint" />
            <Array as="points">
              <mxPoint x="163" y="900" />
              <mxPoint x="1160" y="900" />
              <mxPoint x="1160" y="200" />
            </Array>
          </mxGeometry>
        </mxCell>
        <mxCell id="wcODjkgg840wI776Qi8B-103" value="NÃO" style="edgeLabel;html=1;align=center;verticalAlign=middle;resizable=0;points=[];" parent="wcODjkgg840wI776Qi8B-97" vertex="1" connectable="0">
          <mxGeometry x="-0.9369" relative="1" as="geometry">
            <mxPoint y="24" as="offset" />
          </mxGeometry>
        </mxCell>
        <mxCell id="VYiEM14LJb83dmkJ5VDQ-70" value="CLIENTE ENCONTRADO?" style="rhombus;whiteSpace=wrap;html=1;fillColor=#d80073;strokeColor=#FF99CC;fontColor=#ffffff;shadow=1;" parent="1" vertex="1">
          <mxGeometry x="110" y="595" width="105" height="90" as="geometry" />
        </mxCell>
        <mxCell id="cEaKdVTYvAvty1d2w6ZT-2" value="&lt;h2&gt;&lt;font style=&quot;font-size: 33px;&quot; face=&quot;Garamond&quot;&gt;FLUXOGRAMA&amp;nbsp; CADASTRO CLIENTE&lt;/font&gt;&lt;/h2&gt;" style="text;html=1;align=center;verticalAlign=middle;resizable=0;points=[];autosize=1;strokeColor=none;fillColor=none;" parent="1" vertex="1">
          <mxGeometry x="340" y="50" width="610" height="80" as="geometry" />
        </mxCell>
        <mxCell id="cEaKdVTYvAvty1d2w6ZT-3" value="&lt;h2&gt;&lt;font style=&quot;font-size: 31px;&quot; face=&quot;Garamond&quot;&gt;FLUXOGRAMA CADASTRO PRODUTO&lt;/font&gt;&lt;/h2&gt;" style="text;html=1;align=center;verticalAlign=middle;resizable=0;points=[];autosize=1;strokeColor=none;fillColor=none;" parent="1" vertex="1">
          <mxGeometry x="370" y="1070" width="580" height="80" as="geometry" />
        </mxCell>
        <mxCell id="Bjhl5JZfNS0OBteokcuS-3" value="" style="edgeStyle=orthogonalEdgeStyle;rounded=0;orthogonalLoop=1;jettySize=auto;html=1;" edge="1" parent="1" source="cEaKdVTYvAvty1d2w6ZT-4" target="cEaKdVTYvAvty1d2w6ZT-5">
          <mxGeometry relative="1" as="geometry" />
        </mxCell>
        <mxCell id="cEaKdVTYvAvty1d2w6ZT-4" value="INÍCIO" style="ellipse;whiteSpace=wrap;html=1;fillColor=#d80073;fontColor=#ffffff;strokeColor=#FF99CC;shadow=1;" parent="1" vertex="1">
          <mxGeometry x="-150" y="1273" width="120" height="80" as="geometry" />
        </mxCell>
        <mxCell id="Bjhl5JZfNS0OBteokcuS-25" style="edgeStyle=orthogonalEdgeStyle;rounded=0;orthogonalLoop=1;jettySize=auto;html=1;" edge="1" parent="1" source="cEaKdVTYvAvty1d2w6ZT-5" target="cEaKdVTYvAvty1d2w6ZT-7">
          <mxGeometry relative="1" as="geometry" />
        </mxCell>
        <mxCell id="cEaKdVTYvAvty1d2w6ZT-5" value="LISTAR PRODUTO" style="whiteSpace=wrap;html=1;fillColor=#d80073;strokeColor=#FF99CC;fontColor=#ffffff;shadow=1;" parent="1" vertex="1">
          <mxGeometry x="80" y="1283" width="120" height="60" as="geometry" />
        </mxCell>
        <mxCell id="Bjhl5JZfNS0OBteokcuS-26" style="edgeStyle=orthogonalEdgeStyle;rounded=0;orthogonalLoop=1;jettySize=auto;html=1;" edge="1" parent="1" source="cEaKdVTYvAvty1d2w6ZT-7" target="cEaKdVTYvAvty1d2w6ZT-13">
          <mxGeometry relative="1" as="geometry" />
        </mxCell>
        <mxCell id="cEaKdVTYvAvty1d2w6ZT-7" value="BUSCAR PRODUTO" style="whiteSpace=wrap;html=1;fillColor=#d80073;strokeColor=#FF99CC;fontColor=#ffffff;shadow=1;" parent="1" vertex="1">
          <mxGeometry x="335" y="1283" width="120" height="60" as="geometry" />
        </mxCell>
        <mxCell id="Bjhl5JZfNS0OBteokcuS-30" style="edgeStyle=orthogonalEdgeStyle;rounded=0;orthogonalLoop=1;jettySize=auto;html=1;entryX=0;entryY=0.5;entryDx=0;entryDy=0;" edge="1" parent="1" source="cEaKdVTYvAvty1d2w6ZT-9" target="cEaKdVTYvAvty1d2w6ZT-23">
          <mxGeometry relative="1" as="geometry" />
        </mxCell>
        <mxCell id="cEaKdVTYvAvty1d2w6ZT-9" value="ATUALIZAR PRODUTOS" style="whiteSpace=wrap;html=1;fillColor=#d80073;strokeColor=#FF99CC;fontColor=#ffffff;shadow=1;" parent="1" vertex="1">
          <mxGeometry x="-150" y="1562" width="120" height="60" as="geometry" />
        </mxCell>
        <mxCell id="Bjhl5JZfNS0OBteokcuS-29" style="edgeStyle=orthogonalEdgeStyle;rounded=0;orthogonalLoop=1;jettySize=auto;html=1;entryX=0;entryY=0.5;entryDx=0;entryDy=0;" edge="1" parent="1" source="cEaKdVTYvAvty1d2w6ZT-11" target="cEaKdVTYvAvty1d2w6ZT-23">
          <mxGeometry relative="1" as="geometry" />
        </mxCell>
        <mxCell id="cEaKdVTYvAvty1d2w6ZT-11" value="EXCLUIR PRODUTOS" style="whiteSpace=wrap;html=1;fillColor=#d80073;strokeColor=#FF99CC;fontColor=#ffffff;shadow=1;" parent="1" vertex="1">
          <mxGeometry x="-150" y="1732" width="120" height="60" as="geometry" />
        </mxCell>
        <mxCell id="Bjhl5JZfNS0OBteokcuS-23" style="edgeStyle=orthogonalEdgeStyle;rounded=0;orthogonalLoop=1;jettySize=auto;html=1;entryX=0.5;entryY=0;entryDx=0;entryDy=0;" edge="1" parent="1" source="cEaKdVTYvAvty1d2w6ZT-13" target="cEaKdVTYvAvty1d2w6ZT-15">
          <mxGeometry relative="1" as="geometry" />
        </mxCell>
        <mxCell id="Bjhl5JZfNS0OBteokcuS-24" value="NÃO" style="edgeLabel;html=1;align=center;verticalAlign=middle;resizable=0;points=[];" vertex="1" connectable="0" parent="Bjhl5JZfNS0OBteokcuS-23">
          <mxGeometry x="0.3235" relative="1" as="geometry">
            <mxPoint y="1" as="offset" />
          </mxGeometry>
        </mxCell>
        <mxCell id="Bjhl5JZfNS0OBteokcuS-27" style="edgeStyle=orthogonalEdgeStyle;rounded=0;orthogonalLoop=1;jettySize=auto;html=1;" edge="1" parent="1" source="cEaKdVTYvAvty1d2w6ZT-13" target="cEaKdVTYvAvty1d2w6ZT-23">
          <mxGeometry relative="1" as="geometry" />
        </mxCell>
        <mxCell id="Bjhl5JZfNS0OBteokcuS-28" value="SIM" style="edgeLabel;html=1;align=center;verticalAlign=middle;resizable=0;points=[];" vertex="1" connectable="0" parent="Bjhl5JZfNS0OBteokcuS-27">
          <mxGeometry x="-0.3805" relative="1" as="geometry">
            <mxPoint as="offset" />
          </mxGeometry>
        </mxCell>
        <mxCell id="cEaKdVTYvAvty1d2w6ZT-13" value="PRODUTO CADASTRADO?" style="rhombus;whiteSpace=wrap;html=1;fillColor=#d80073;strokeColor=#FF99CC;fontColor=#ffffff;shadow=1;" parent="1" vertex="1">
          <mxGeometry x="340" y="1433" width="110" height="100" as="geometry" />
        </mxCell>
        <mxCell id="Bjhl5JZfNS0OBteokcuS-14" style="edgeStyle=orthogonalEdgeStyle;rounded=0;orthogonalLoop=1;jettySize=auto;html=1;entryX=0.5;entryY=0;entryDx=0;entryDy=0;" edge="1" parent="1" source="cEaKdVTYvAvty1d2w6ZT-15" target="Bjhl5JZfNS0OBteokcuS-6">
          <mxGeometry relative="1" as="geometry" />
        </mxCell>
        <mxCell id="Bjhl5JZfNS0OBteokcuS-15" style="edgeStyle=orthogonalEdgeStyle;rounded=0;orthogonalLoop=1;jettySize=auto;html=1;entryX=0.5;entryY=0;entryDx=0;entryDy=0;" edge="1" parent="1" source="cEaKdVTYvAvty1d2w6ZT-15" target="Bjhl5JZfNS0OBteokcuS-8">
          <mxGeometry relative="1" as="geometry">
            <Array as="points">
              <mxPoint x="580" y="1650" />
              <mxPoint x="350" y="1650" />
            </Array>
          </mxGeometry>
        </mxCell>
        <mxCell id="Bjhl5JZfNS0OBteokcuS-16" style="edgeStyle=orthogonalEdgeStyle;rounded=0;orthogonalLoop=1;jettySize=auto;html=1;entryX=0.5;entryY=0;entryDx=0;entryDy=0;" edge="1" parent="1" source="cEaKdVTYvAvty1d2w6ZT-15" target="Bjhl5JZfNS0OBteokcuS-7">
          <mxGeometry relative="1" as="geometry">
            <Array as="points">
              <mxPoint x="580" y="1650" />
              <mxPoint x="465" y="1650" />
            </Array>
          </mxGeometry>
        </mxCell>
        <mxCell id="Bjhl5JZfNS0OBteokcuS-18" style="edgeStyle=orthogonalEdgeStyle;rounded=0;orthogonalLoop=1;jettySize=auto;html=1;entryX=0.5;entryY=0;entryDx=0;entryDy=0;" edge="1" parent="1" source="cEaKdVTYvAvty1d2w6ZT-15" target="Bjhl5JZfNS0OBteokcuS-5">
          <mxGeometry relative="1" as="geometry">
            <Array as="points">
              <mxPoint x="580" y="1650" />
              <mxPoint x="700" y="1650" />
            </Array>
          </mxGeometry>
        </mxCell>
        <mxCell id="Bjhl5JZfNS0OBteokcuS-241" style="edgeStyle=orthogonalEdgeStyle;rounded=0;orthogonalLoop=1;jettySize=auto;html=1;entryX=0.5;entryY=0;entryDx=0;entryDy=0;" edge="1" parent="1" source="cEaKdVTYvAvty1d2w6ZT-15" target="Bjhl5JZfNS0OBteokcuS-239">
          <mxGeometry relative="1" as="geometry">
            <Array as="points">
              <mxPoint x="580" y="1650" />
              <mxPoint x="820" y="1650" />
            </Array>
          </mxGeometry>
        </mxCell>
        <mxCell id="cEaKdVTYvAvty1d2w6ZT-15" value="CADASTRAR PRODUTO" style="whiteSpace=wrap;html=1;fillColor=#d80073;strokeColor=#FF99CC;fontColor=#ffffff;shadow=1;" parent="1" vertex="1">
          <mxGeometry x="520" y="1553" width="120" height="60" as="geometry" />
        </mxCell>
        <mxCell id="Bjhl5JZfNS0OBteokcuS-33" value="" style="edgeStyle=orthogonalEdgeStyle;rounded=0;orthogonalLoop=1;jettySize=auto;html=1;" edge="1" parent="1" source="cEaKdVTYvAvty1d2w6ZT-17" target="cEaKdVTYvAvty1d2w6ZT-19">
          <mxGeometry relative="1" as="geometry" />
        </mxCell>
        <mxCell id="Bjhl5JZfNS0OBteokcuS-34" value="NÃO" style="edgeLabel;html=1;align=center;verticalAlign=middle;resizable=0;points=[];" vertex="1" connectable="0" parent="Bjhl5JZfNS0OBteokcuS-33">
          <mxGeometry x="-0.1456" relative="1" as="geometry">
            <mxPoint as="offset" />
          </mxGeometry>
        </mxCell>
        <mxCell id="cEaKdVTYvAvty1d2w6ZT-17" value="DADOS DO PRODUTO VÁLIDOS?" style="rhombus;whiteSpace=wrap;html=1;fillColor=#d80073;strokeColor=#FF99CC;fontColor=#ffffff;shadow=1;" parent="1" vertex="1">
          <mxGeometry x="877.5" y="1573" width="105" height="100" as="geometry" />
        </mxCell>
        <mxCell id="Bjhl5JZfNS0OBteokcuS-39" style="edgeStyle=orthogonalEdgeStyle;rounded=0;orthogonalLoop=1;jettySize=auto;html=1;entryX=0;entryY=1;entryDx=0;entryDy=0;" edge="1" parent="1" source="cEaKdVTYvAvty1d2w6ZT-19" target="cEaKdVTYvAvty1d2w6ZT-23">
          <mxGeometry relative="1" as="geometry">
            <Array as="points">
              <mxPoint x="1140" y="1463" />
              <mxPoint x="1140" y="2060" />
              <mxPoint x="112" y="2060" />
            </Array>
          </mxGeometry>
        </mxCell>
        <mxCell id="cEaKdVTYvAvty1d2w6ZT-19" value="MOSTRAR ERRO&amp;nbsp;" style="whiteSpace=wrap;html=1;fillColor=#d80073;strokeColor=#FF99CC;fontColor=#ffffff;shadow=1;" parent="1" vertex="1">
          <mxGeometry x="870" y="1433" width="120" height="60" as="geometry" />
        </mxCell>
        <mxCell id="Bjhl5JZfNS0OBteokcuS-31" style="edgeStyle=orthogonalEdgeStyle;rounded=0;orthogonalLoop=1;jettySize=auto;html=1;entryX=0.5;entryY=0;entryDx=0;entryDy=0;" edge="1" parent="1" source="cEaKdVTYvAvty1d2w6ZT-23" target="cEaKdVTYvAvty1d2w6ZT-25">
          <mxGeometry relative="1" as="geometry">
            <Array as="points">
              <mxPoint x="240" y="1762" />
            </Array>
          </mxGeometry>
        </mxCell>
        <mxCell id="Bjhl5JZfNS0OBteokcuS-32" value="SIM" style="edgeLabel;html=1;align=center;verticalAlign=middle;resizable=0;points=[];" vertex="1" connectable="0" parent="Bjhl5JZfNS0OBteokcuS-31">
          <mxGeometry x="0.1115" y="-1" relative="1" as="geometry">
            <mxPoint y="-1" as="offset" />
          </mxGeometry>
        </mxCell>
        <mxCell id="Bjhl5JZfNS0OBteokcuS-37" style="edgeStyle=orthogonalEdgeStyle;rounded=0;orthogonalLoop=1;jettySize=auto;html=1;entryX=1;entryY=0.5;entryDx=0;entryDy=0;" edge="1" parent="1" source="cEaKdVTYvAvty1d2w6ZT-23" target="cEaKdVTYvAvty1d2w6ZT-7">
          <mxGeometry relative="1" as="geometry">
            <Array as="points">
              <mxPoint x="140" y="2000" />
              <mxPoint x="1100" y="2000" />
              <mxPoint x="1100" y="1313" />
            </Array>
          </mxGeometry>
        </mxCell>
        <mxCell id="Bjhl5JZfNS0OBteokcuS-38" value="NÃO" style="edgeLabel;html=1;align=center;verticalAlign=middle;resizable=0;points=[];" vertex="1" connectable="0" parent="Bjhl5JZfNS0OBteokcuS-37">
          <mxGeometry x="-0.8994" y="1" relative="1" as="geometry">
            <mxPoint y="-1" as="offset" />
          </mxGeometry>
        </mxCell>
        <mxCell id="cEaKdVTYvAvty1d2w6ZT-23" value="PRODUTO ENCONTRADO?" style="rhombus;whiteSpace=wrap;html=1;fillColor=#d80073;strokeColor=#FF99CC;fontColor=#ffffff;shadow=1;" parent="1" vertex="1">
          <mxGeometry x="85" y="1712" width="110" height="98" as="geometry" />
        </mxCell>
        <mxCell id="cEaKdVTYvAvty1d2w6ZT-25" value="FIM" style="ellipse;whiteSpace=wrap;html=1;fillColor=#d80073;fontColor=#ffffff;strokeColor=#FF99CC;shadow=1;" parent="1" vertex="1">
          <mxGeometry x="180" y="1860" width="120" height="80" as="geometry" />
        </mxCell>
        <mxCell id="wcODjkgg840wI776Qi8B-80" style="edgeStyle=orthogonalEdgeStyle;rounded=0;orthogonalLoop=1;jettySize=auto;html=1;entryX=0.5;entryY=1;entryDx=0;entryDy=0;" parent="1" source="wcODjkgg840wI776Qi8B-70" target="VYiEM14LJb83dmkJ5VDQ-54" edge="1">
          <mxGeometry relative="1" as="geometry">
            <Array as="points">
              <mxPoint x="323" y="680" />
              <mxPoint x="1050" y="680" />
            </Array>
          </mxGeometry>
        </mxCell>
        <mxCell id="wcODjkgg840wI776Qi8B-70" value="NOME" style="rounded=0;whiteSpace=wrap;html=1;fillColor=#d80073;fontColor=#ffffff;strokeColor=#A50040;" parent="1" vertex="1">
          <mxGeometry x="272.5" y="560" width="100" height="40" as="geometry" />
        </mxCell>
        <mxCell id="wcODjkgg840wI776Qi8B-81" style="edgeStyle=orthogonalEdgeStyle;rounded=0;orthogonalLoop=1;jettySize=auto;html=1;entryX=0.5;entryY=1;entryDx=0;entryDy=0;" parent="1" source="wcODjkgg840wI776Qi8B-71" target="VYiEM14LJb83dmkJ5VDQ-54" edge="1">
          <mxGeometry relative="1" as="geometry">
            <Array as="points">
              <mxPoint x="450" y="680" />
              <mxPoint x="1050" y="680" />
            </Array>
          </mxGeometry>
        </mxCell>
        <mxCell id="wcODjkgg840wI776Qi8B-71" value="TELEFONE" style="rounded=0;whiteSpace=wrap;html=1;fillColor=#d80073;fontColor=#ffffff;strokeColor=#A50040;" parent="1" vertex="1">
          <mxGeometry x="400" y="560" width="100" height="40" as="geometry" />
        </mxCell>
        <mxCell id="wcODjkgg840wI776Qi8B-82" style="edgeStyle=orthogonalEdgeStyle;rounded=0;orthogonalLoop=1;jettySize=auto;html=1;entryX=0.5;entryY=1;entryDx=0;entryDy=0;" parent="1" source="wcODjkgg840wI776Qi8B-72" target="VYiEM14LJb83dmkJ5VDQ-54" edge="1">
          <mxGeometry relative="1" as="geometry">
            <Array as="points">
              <mxPoint x="565" y="680" />
              <mxPoint x="1050" y="680" />
            </Array>
          </mxGeometry>
        </mxCell>
        <mxCell id="wcODjkgg840wI776Qi8B-72" value="ENDEREÇO" style="rounded=0;whiteSpace=wrap;html=1;fillColor=#d80073;fontColor=#ffffff;strokeColor=#A50040;" parent="1" vertex="1">
          <mxGeometry x="515" y="560" width="100" height="40" as="geometry" />
        </mxCell>
        <mxCell id="wcODjkgg840wI776Qi8B-83" style="edgeStyle=orthogonalEdgeStyle;rounded=0;orthogonalLoop=1;jettySize=auto;html=1;entryX=0.5;entryY=1;entryDx=0;entryDy=0;" parent="1" source="wcODjkgg840wI776Qi8B-73" target="VYiEM14LJb83dmkJ5VDQ-54" edge="1">
          <mxGeometry relative="1" as="geometry">
            <Array as="points">
              <mxPoint x="690" y="680" />
              <mxPoint x="1050" y="680" />
            </Array>
          </mxGeometry>
        </mxCell>
        <mxCell id="wcODjkgg840wI776Qi8B-73" value="CPF" style="rounded=0;whiteSpace=wrap;html=1;fillColor=#d80073;fontColor=#ffffff;strokeColor=#A50040;" parent="1" vertex="1">
          <mxGeometry x="640" y="560" width="100" height="40" as="geometry" />
        </mxCell>
        <mxCell id="wcODjkgg840wI776Qi8B-84" style="edgeStyle=orthogonalEdgeStyle;rounded=0;orthogonalLoop=1;jettySize=auto;html=1;entryX=0.5;entryY=1;entryDx=0;entryDy=0;" parent="1" source="wcODjkgg840wI776Qi8B-74" target="VYiEM14LJb83dmkJ5VDQ-54" edge="1">
          <mxGeometry relative="1" as="geometry">
            <mxPoint x="1050" y="660" as="targetPoint" />
            <Array as="points">
              <mxPoint x="810" y="680" />
              <mxPoint x="1050" y="680" />
            </Array>
          </mxGeometry>
        </mxCell>
        <mxCell id="wcODjkgg840wI776Qi8B-74" value="DATA DE NASCIMENTO" style="rounded=0;whiteSpace=wrap;html=1;fillColor=#d80073;fontColor=#ffffff;strokeColor=#A50040;" parent="1" vertex="1">
          <mxGeometry x="760" y="560" width="100" height="40" as="geometry" />
        </mxCell>
        <mxCell id="wcODjkgg840wI776Qi8B-105" value="" style="rounded=1;whiteSpace=wrap;html=1;direction=south;fillColor=#050505;" parent="1" vertex="1">
          <mxGeometry x="1500" y="230" width="350" height="700" as="geometry" />
        </mxCell>
        <mxCell id="wcODjkgg840wI776Qi8B-106" value="" style="rounded=1;whiteSpace=wrap;html=1;" parent="1" vertex="1">
          <mxGeometry x="1540" y="370" width="280" height="33" as="geometry" />
        </mxCell>
        <mxCell id="wcODjkgg840wI776Qi8B-107" value="&lt;h6&gt;&lt;br&gt;&lt;/h6&gt;" style="rounded=1;whiteSpace=wrap;html=1;direction=south;fillColor=#FF99CC;gradientColor=#6666FF;strokeColor=#996185;" parent="1" vertex="1">
          <mxGeometry x="1510" y="240" width="330" height="680" as="geometry" />
        </mxCell>
        <mxCell id="wcODjkgg840wI776Qi8B-109" value="" style="rounded=1;whiteSpace=wrap;html=1;" parent="1" vertex="1">
          <mxGeometry x="1530" y="347" width="280" height="40" as="geometry" />
        </mxCell>
        <mxCell id="wcODjkgg840wI776Qi8B-110" value="&lt;font color=&quot;#ffffff&quot; style=&quot;font-size: 14px;&quot;&gt;NOME:&lt;/font&gt;" style="text;html=1;align=center;verticalAlign=middle;whiteSpace=wrap;rounded=0;" parent="1" vertex="1">
          <mxGeometry x="1530" y="310" width="60" height="35" as="geometry" />
        </mxCell>
        <mxCell id="wcODjkgg840wI776Qi8B-111" value="&lt;h2&gt;&lt;font style=&quot;font-size: 22px;&quot; face=&quot;Times New Roman&quot;&gt;CADASTRO DO CLIENTE&lt;/font&gt;&lt;/h2&gt;" style="text;html=1;align=center;verticalAlign=middle;whiteSpace=wrap;rounded=0;" parent="1" vertex="1">
          <mxGeometry x="1530" y="260" width="290" height="50" as="geometry" />
        </mxCell>
        <mxCell id="wcODjkgg840wI776Qi8B-112" value="" style="rounded=1;whiteSpace=wrap;html=1;direction=west;align=left;" parent="1" vertex="1">
          <mxGeometry x="1530" y="440" width="280" height="40" as="geometry" />
        </mxCell>
        <mxCell id="wcODjkgg840wI776Qi8B-113" value="&lt;font color=&quot;#ffffff&quot; style=&quot;font-size: 14px;&quot;&gt;TELEFONE:&lt;/font&gt;" style="text;html=1;align=center;verticalAlign=middle;whiteSpace=wrap;rounded=0;" parent="1" vertex="1">
          <mxGeometry x="1530" y="685" width="80" height="30" as="geometry" />
        </mxCell>
        <mxCell id="wcODjkgg840wI776Qi8B-114" value="" style="rounded=1;whiteSpace=wrap;html=1;" parent="1" vertex="1">
          <mxGeometry x="1530" y="530" width="280" height="40" as="geometry" />
        </mxCell>
        <mxCell id="wcODjkgg840wI776Qi8B-115" value="&lt;font color=&quot;#ffffff&quot; style=&quot;font-size: 14px;&quot;&gt;ENDEREÇO:&lt;/font&gt;" style="text;html=1;align=center;verticalAlign=middle;whiteSpace=wrap;rounded=0;" parent="1" vertex="1">
          <mxGeometry x="1530" y="500" width="90" height="30" as="geometry" />
        </mxCell>
        <mxCell id="wcODjkgg840wI776Qi8B-117" value="" style="rounded=1;whiteSpace=wrap;html=1;" parent="1" vertex="1">
          <mxGeometry x="1530" y="620" width="285" height="40" as="geometry" />
        </mxCell>
        <mxCell id="wcODjkgg840wI776Qi8B-118" value="&lt;font color=&quot;#ffffff&quot; style=&quot;font-size: 14px;&quot;&gt;CPF:&lt;/font&gt;" style="text;html=1;align=center;verticalAlign=middle;whiteSpace=wrap;rounded=0;" parent="1" vertex="1">
          <mxGeometry x="1530" y="590" width="40" height="30" as="geometry" />
        </mxCell>
        <mxCell id="wcODjkgg840wI776Qi8B-119" value="" style="rounded=1;whiteSpace=wrap;html=1;" parent="1" vertex="1">
          <mxGeometry x="1527.5" y="715" width="290" height="40" as="geometry" />
        </mxCell>
        <mxCell id="wcODjkgg840wI776Qi8B-121" value="&lt;font color=&quot;#ffffff&quot; style=&quot;font-size: 14px;&quot;&gt;DATA DE NASCIMENTO:&lt;/font&gt;" style="text;html=1;align=left;verticalAlign=middle;whiteSpace=wrap;rounded=0;" parent="1" vertex="1">
          <mxGeometry x="1530" y="410" width="200" height="30" as="geometry" />
        </mxCell>
        <mxCell id="wcODjkgg840wI776Qi8B-122" value="" style="ellipse;whiteSpace=wrap;html=1;aspect=fixed;fillColor=#000000;" parent="1" vertex="1">
          <mxGeometry x="1670" y="250" width="10" height="10" as="geometry" />
        </mxCell>
        <mxCell id="wcODjkgg840wI776Qi8B-123" value="&lt;span style=&quot;font-size: 18px;&quot;&gt;FEITO&lt;/span&gt;" style="rounded=1;whiteSpace=wrap;html=1;fillColor=#FFFFFF;" parent="1" vertex="1">
          <mxGeometry x="1605" y="870" width="140" height="30" as="geometry" />
        </mxCell>
        <mxCell id="wcODjkgg840wI776Qi8B-124" value="&lt;h2&gt;&lt;font style=&quot;font-size: 33px;&quot; face=&quot;Garamond&quot;&gt;TELAS CADASTRO CLIENTE&lt;/font&gt;&lt;/h2&gt;" style="text;html=1;align=center;verticalAlign=middle;resizable=0;points=[];autosize=1;strokeColor=none;fillColor=none;" parent="1" vertex="1">
          <mxGeometry x="1790" y="50" width="480" height="80" as="geometry" />
        </mxCell>
        <mxCell id="wcODjkgg840wI776Qi8B-125" value="" style="rounded=1;whiteSpace=wrap;html=1;fillColor=#000000;" parent="1" vertex="1">
          <mxGeometry x="1990" y="270" width="950" height="580" as="geometry" />
        </mxCell>
        <mxCell id="wcODjkgg840wI776Qi8B-126" value="" style="rounded=1;whiteSpace=wrap;html=1;fillColor=#6666FF;gradientColor=#d5739d;strokeColor=#996185;" parent="1" vertex="1">
          <mxGeometry x="2000" y="280" width="930" height="550" as="geometry" />
        </mxCell>
        <mxCell id="wcODjkgg840wI776Qi8B-127" value="&lt;h1&gt;&lt;font style=&quot;font-size: 29px;&quot; face=&quot;Times New Roman&quot;&gt;CADASTRO DO CLIENTE&lt;/font&gt;&lt;/h1&gt;" style="text;html=1;align=center;verticalAlign=middle;whiteSpace=wrap;rounded=0;" parent="1" vertex="1">
          <mxGeometry x="2242.5" y="310" width="445" height="30" as="geometry" />
        </mxCell>
        <mxCell id="wcODjkgg840wI776Qi8B-128" value="&lt;font color=&quot;#ffffff&quot; style=&quot;font-size: 16px;&quot;&gt;NOME:&lt;/font&gt;" style="text;html=1;align=center;verticalAlign=middle;whiteSpace=wrap;rounded=0;" parent="1" vertex="1">
          <mxGeometry x="2050" y="387" width="60" height="30" as="geometry" />
        </mxCell>
        <mxCell id="wcODjkgg840wI776Qi8B-129" value="" style="rounded=1;whiteSpace=wrap;html=1;" parent="1" vertex="1">
          <mxGeometry x="2050" y="420" width="380" height="30" as="geometry" />
        </mxCell>
        <mxCell id="wcODjkgg840wI776Qi8B-131" value="" style="rounded=1;whiteSpace=wrap;html=1;" parent="1" vertex="1">
          <mxGeometry x="2490" y="417" width="380" height="30" as="geometry" />
        </mxCell>
        <mxCell id="wcODjkgg840wI776Qi8B-132" value="&lt;font color=&quot;#ffffff&quot; style=&quot;font-size: 16px;&quot;&gt;DATA DE NASCIMENTO:&lt;/font&gt;" style="text;html=1;align=center;verticalAlign=middle;whiteSpace=wrap;rounded=0;" parent="1" vertex="1">
          <mxGeometry x="2490" y="387" width="190" height="30" as="geometry" />
        </mxCell>
        <mxCell id="wcODjkgg840wI776Qi8B-133" value="&lt;font color=&quot;#ffffff&quot; style=&quot;font-size: 16px;&quot;&gt;ENDEREÇO:&lt;/font&gt;" style="text;html=1;align=center;verticalAlign=middle;whiteSpace=wrap;rounded=0;" parent="1" vertex="1">
          <mxGeometry x="2050" y="500" width="90" height="30" as="geometry" />
        </mxCell>
        <mxCell id="wcODjkgg840wI776Qi8B-134" value="" style="rounded=1;whiteSpace=wrap;html=1;" parent="1" vertex="1">
          <mxGeometry x="2050" y="530" width="380" height="30" as="geometry" />
        </mxCell>
        <mxCell id="wcODjkgg840wI776Qi8B-135" value="&lt;font color=&quot;#ffffff&quot; style=&quot;font-size: 16px;&quot;&gt;CPF:&lt;/font&gt;" style="text;html=1;align=center;verticalAlign=middle;whiteSpace=wrap;rounded=0;" parent="1" vertex="1">
          <mxGeometry x="2490" y="500" width="40" height="30" as="geometry" />
        </mxCell>
        <mxCell id="wcODjkgg840wI776Qi8B-136" value="" style="rounded=1;whiteSpace=wrap;html=1;" parent="1" vertex="1">
          <mxGeometry x="2490" y="530" width="380" height="30" as="geometry" />
        </mxCell>
        <mxCell id="wcODjkgg840wI776Qi8B-137" value="&lt;font color=&quot;#ffffff&quot; style=&quot;font-size: 16px;&quot;&gt;TELEFONE:&lt;/font&gt;" style="text;html=1;align=center;verticalAlign=middle;whiteSpace=wrap;rounded=0;" parent="1" vertex="1">
          <mxGeometry x="2050" y="610" width="80" height="30" as="geometry" />
        </mxCell>
        <mxCell id="wcODjkgg840wI776Qi8B-139" value="" style="rounded=1;whiteSpace=wrap;html=1;" parent="1" vertex="1">
          <mxGeometry x="2050" y="640" width="380" height="30" as="geometry" />
        </mxCell>
        <mxCell id="wcODjkgg840wI776Qi8B-143" style="edgeStyle=orthogonalEdgeStyle;rounded=0;orthogonalLoop=1;jettySize=auto;html=1;entryX=0.5;entryY=1;entryDx=0;entryDy=0;exitX=0.5;exitY=1;exitDx=0;exitDy=0;" parent="1" source="wcODjkgg840wI776Qi8B-141" target="VYiEM14LJb83dmkJ5VDQ-54" edge="1">
          <mxGeometry relative="1" as="geometry">
            <Array as="points">
              <mxPoint x="930" y="680" />
              <mxPoint x="1050" y="680" />
            </Array>
          </mxGeometry>
        </mxCell>
        <mxCell id="wcODjkgg840wI776Qi8B-141" value="E-MAIL" style="rounded=0;whiteSpace=wrap;html=1;fillColor=#d80073;fontColor=#ffffff;strokeColor=#A50040;" parent="1" vertex="1">
          <mxGeometry x="880" y="560" width="100" height="40" as="geometry" />
        </mxCell>
        <mxCell id="wcODjkgg840wI776Qi8B-144" value="&lt;font color=&quot;#ffffff&quot;&gt;&lt;span style=&quot;font-size: 14px;&quot;&gt;E-MAIL&lt;/span&gt;&lt;/font&gt;" style="text;html=1;align=left;verticalAlign=middle;whiteSpace=wrap;rounded=0;" parent="1" vertex="1">
          <mxGeometry x="1530" y="780" width="80" height="30" as="geometry" />
        </mxCell>
        <mxCell id="wcODjkgg840wI776Qi8B-145" value="" style="rounded=1;whiteSpace=wrap;html=1;" parent="1" vertex="1">
          <mxGeometry x="1527.5" y="810" width="290" height="40" as="geometry" />
        </mxCell>
        <mxCell id="wcODjkgg840wI776Qi8B-146" value="&lt;font color=&quot;#ffffff&quot;&gt;&lt;span style=&quot;font-size: 16px;&quot;&gt;E-MAIL:&lt;/span&gt;&lt;/font&gt;" style="text;html=1;align=center;verticalAlign=middle;whiteSpace=wrap;rounded=0;" parent="1" vertex="1">
          <mxGeometry x="2490" y="610" width="70" height="30" as="geometry" />
        </mxCell>
        <mxCell id="wcODjkgg840wI776Qi8B-147" value="" style="rounded=1;whiteSpace=wrap;html=1;" parent="1" vertex="1">
          <mxGeometry x="2490" y="640" width="380" height="30" as="geometry" />
        </mxCell>
        <mxCell id="wcODjkgg840wI776Qi8B-148" value="&lt;font style=&quot;font-size: 19px;&quot;&gt;FEITO&lt;/font&gt;" style="rounded=1;whiteSpace=wrap;html=1;" parent="1" vertex="1">
          <mxGeometry x="2352.5" y="730" width="225" height="50" as="geometry" />
        </mxCell>
        <mxCell id="wcODjkgg840wI776Qi8B-150" value="" style="ellipse;whiteSpace=wrap;html=1;aspect=fixed;fillColor=#000000;" parent="1" vertex="1">
          <mxGeometry x="2460" y="290" width="10" height="10" as="geometry" />
        </mxCell>
        <mxCell id="Bjhl5JZfNS0OBteokcuS-22" style="edgeStyle=orthogonalEdgeStyle;rounded=0;orthogonalLoop=1;jettySize=auto;html=1;entryX=0.5;entryY=1;entryDx=0;entryDy=0;" edge="1" parent="1">
          <mxGeometry relative="1" as="geometry">
            <mxPoint x="700" y="1732.0599999999995" as="sourcePoint" />
            <mxPoint x="930" y="1682.0599999999995" as="targetPoint" />
            <Array as="points">
              <mxPoint x="700" y="1792.06" />
              <mxPoint x="930" y="1792.06" />
            </Array>
          </mxGeometry>
        </mxCell>
        <mxCell id="Bjhl5JZfNS0OBteokcuS-5" value="TEMPO DE PRODUÇÃO" style="rounded=0;whiteSpace=wrap;html=1;fillColor=#d80073;fontColor=#ffffff;strokeColor=#A50040;" vertex="1" parent="1">
          <mxGeometry x="650" y="1683" width="100" height="40" as="geometry" />
        </mxCell>
        <mxCell id="Bjhl5JZfNS0OBteokcuS-21" style="edgeStyle=orthogonalEdgeStyle;rounded=0;orthogonalLoop=1;jettySize=auto;html=1;entryX=0.5;entryY=1;entryDx=0;entryDy=0;" edge="1" parent="1" source="Bjhl5JZfNS0OBteokcuS-6" target="cEaKdVTYvAvty1d2w6ZT-17">
          <mxGeometry relative="1" as="geometry">
            <Array as="points">
              <mxPoint x="580" y="1790" />
              <mxPoint x="930" y="1790" />
            </Array>
          </mxGeometry>
        </mxCell>
        <mxCell id="Bjhl5JZfNS0OBteokcuS-6" value="PREÇO" style="rounded=0;whiteSpace=wrap;html=1;fillColor=#d80073;fontColor=#ffffff;strokeColor=#A50040;" vertex="1" parent="1">
          <mxGeometry x="530" y="1683" width="100" height="40" as="geometry" />
        </mxCell>
        <mxCell id="Bjhl5JZfNS0OBteokcuS-20" style="edgeStyle=orthogonalEdgeStyle;rounded=0;orthogonalLoop=1;jettySize=auto;html=1;entryX=0.5;entryY=1;entryDx=0;entryDy=0;" edge="1" parent="1" source="Bjhl5JZfNS0OBteokcuS-7" target="cEaKdVTYvAvty1d2w6ZT-17">
          <mxGeometry relative="1" as="geometry">
            <Array as="points">
              <mxPoint x="465" y="1790" />
              <mxPoint x="930" y="1790" />
            </Array>
          </mxGeometry>
        </mxCell>
        <mxCell id="Bjhl5JZfNS0OBteokcuS-7" value="CUSTO" style="rounded=0;whiteSpace=wrap;html=1;fillColor=#d80073;fontColor=#ffffff;strokeColor=#A50040;" vertex="1" parent="1">
          <mxGeometry x="415" y="1683" width="100" height="40" as="geometry" />
        </mxCell>
        <mxCell id="Bjhl5JZfNS0OBteokcuS-19" style="edgeStyle=orthogonalEdgeStyle;rounded=0;orthogonalLoop=1;jettySize=auto;html=1;" edge="1" parent="1">
          <mxGeometry relative="1" as="geometry">
            <mxPoint x="350" y="1722.9999999999995" as="sourcePoint" />
            <mxPoint x="930" y="1672.9999999999995" as="targetPoint" />
            <Array as="points">
              <mxPoint x="350" y="1790" />
              <mxPoint x="930" y="1790" />
            </Array>
          </mxGeometry>
        </mxCell>
        <mxCell id="Bjhl5JZfNS0OBteokcuS-8" value="NOME DO PRDUTO&amp;nbsp;" style="rounded=0;whiteSpace=wrap;html=1;fillColor=#d80073;fontColor=#ffffff;strokeColor=#A50040;" vertex="1" parent="1">
          <mxGeometry x="300" y="1683" width="100" height="40" as="geometry" />
        </mxCell>
        <mxCell id="Bjhl5JZfNS0OBteokcuS-35" style="edgeStyle=orthogonalEdgeStyle;rounded=0;orthogonalLoop=1;jettySize=auto;html=1;entryX=1;entryY=0.5;entryDx=0;entryDy=0;exitX=1;exitY=0.5;exitDx=0;exitDy=0;" edge="1" parent="1" source="cEaKdVTYvAvty1d2w6ZT-17" target="cEaKdVTYvAvty1d2w6ZT-25">
          <mxGeometry relative="1" as="geometry">
            <mxPoint x="940" y="1680" as="sourcePoint" />
            <Array as="points">
              <mxPoint x="1060" y="1623" />
              <mxPoint x="1060" y="1900" />
            </Array>
          </mxGeometry>
        </mxCell>
        <mxCell id="Bjhl5JZfNS0OBteokcuS-36" value="SIM" style="edgeLabel;html=1;align=center;verticalAlign=middle;resizable=0;points=[];" vertex="1" connectable="0" parent="Bjhl5JZfNS0OBteokcuS-35">
          <mxGeometry x="-0.6938" relative="1" as="geometry">
            <mxPoint as="offset" />
          </mxGeometry>
        </mxCell>
        <mxCell id="Bjhl5JZfNS0OBteokcuS-58" value="" style="rounded=1;whiteSpace=wrap;html=1;direction=south;fillColor=#050505;" vertex="1" parent="1">
          <mxGeometry x="1505" y="2480" width="350" height="700" as="geometry" />
        </mxCell>
        <mxCell id="Bjhl5JZfNS0OBteokcuS-59" value="&lt;h6&gt;&lt;br&gt;&lt;/h6&gt;" style="rounded=1;whiteSpace=wrap;html=1;direction=south;fillColor=#FF3333;gradientColor=#6666FF;strokeColor=#996185;" vertex="1" parent="1">
          <mxGeometry x="1515" y="2490" width="330" height="680" as="geometry" />
        </mxCell>
        <mxCell id="Bjhl5JZfNS0OBteokcuS-60" value="" style="ellipse;whiteSpace=wrap;html=1;aspect=fixed;fillColor=#000000;" vertex="1" parent="1">
          <mxGeometry x="1675" y="2497" width="10" height="10" as="geometry" />
        </mxCell>
        <mxCell id="Bjhl5JZfNS0OBteokcuS-63" value="&lt;h2&gt;&lt;font style=&quot;font-size: 21px;&quot; face=&quot;Times New Roman&quot;&gt;CADASTRO DO FORNECEDOR&lt;/font&gt;&lt;/h2&gt;" style="text;html=1;align=center;verticalAlign=middle;whiteSpace=wrap;rounded=0;" vertex="1" parent="1">
          <mxGeometry x="1510" y="2511" width="335" height="50" as="geometry" />
        </mxCell>
        <mxCell id="Bjhl5JZfNS0OBteokcuS-64" value="&lt;span style=&quot;font-size: 14px;&quot;&gt;&lt;font color=&quot;#ffffff&quot;&gt;NOME DO FORNECEDOR:&lt;/font&gt;&lt;/span&gt;" style="text;html=1;align=center;verticalAlign=middle;whiteSpace=wrap;rounded=0;" vertex="1" parent="1">
          <mxGeometry x="1540" y="2576.5" width="180" height="35" as="geometry" />
        </mxCell>
        <mxCell id="Bjhl5JZfNS0OBteokcuS-65" value="" style="rounded=1;whiteSpace=wrap;html=1;" vertex="1" parent="1">
          <mxGeometry x="1540" y="2607" width="280" height="40" as="geometry" />
        </mxCell>
        <mxCell id="Bjhl5JZfNS0OBteokcuS-66" value="&lt;span style=&quot;font-size: 14px;&quot;&gt;&lt;font color=&quot;#ffffff&quot;&gt;TELEFONE:&lt;/font&gt;&lt;/span&gt;" style="text;html=1;align=center;verticalAlign=middle;whiteSpace=wrap;rounded=0;" vertex="1" parent="1">
          <mxGeometry x="1540" y="2662.5" width="90" height="35" as="geometry" />
        </mxCell>
        <mxCell id="Bjhl5JZfNS0OBteokcuS-67" value="&lt;span style=&quot;font-size: 14px;&quot;&gt;&lt;font color=&quot;#ffffff&quot;&gt;E-MAIL:&lt;/font&gt;&lt;/span&gt;" style="text;html=1;align=center;verticalAlign=middle;whiteSpace=wrap;rounded=0;" vertex="1" parent="1">
          <mxGeometry x="1540" y="2740" width="60" height="35" as="geometry" />
        </mxCell>
        <mxCell id="Bjhl5JZfNS0OBteokcuS-68" value="&lt;span style=&quot;font-size: 14px;&quot;&gt;&lt;font color=&quot;#ffffff&quot;&gt;TIPO DE FORNECIMENTO:&lt;/font&gt;&lt;/span&gt;" style="text;html=1;align=left;verticalAlign=middle;whiteSpace=wrap;rounded=0;" vertex="1" parent="1">
          <mxGeometry x="1540" y="2825" width="200" height="35" as="geometry" />
        </mxCell>
        <mxCell id="Bjhl5JZfNS0OBteokcuS-69" value="" style="rounded=1;whiteSpace=wrap;html=1;" vertex="1" parent="1">
          <mxGeometry x="1540" y="2690" width="280" height="40" as="geometry" />
        </mxCell>
        <mxCell id="Bjhl5JZfNS0OBteokcuS-70" value="" style="rounded=1;whiteSpace=wrap;html=1;" vertex="1" parent="1">
          <mxGeometry x="1540" y="2770" width="280" height="40" as="geometry" />
        </mxCell>
        <mxCell id="Bjhl5JZfNS0OBteokcuS-71" value="" style="rounded=1;whiteSpace=wrap;html=1;" vertex="1" parent="1">
          <mxGeometry x="1540" y="2851" width="280" height="40" as="geometry" />
        </mxCell>
        <mxCell id="Bjhl5JZfNS0OBteokcuS-72" value="&lt;span style=&quot;font-size: 15px;&quot;&gt;FEITO&lt;/span&gt;" style="rounded=1;whiteSpace=wrap;html=1;" vertex="1" parent="1">
          <mxGeometry x="1584.38" y="3050" width="181.25" height="40" as="geometry" />
        </mxCell>
        <mxCell id="Bjhl5JZfNS0OBteokcuS-73" value="" style="rounded=1;whiteSpace=wrap;html=1;fillColor=#000000;" vertex="1" parent="1">
          <mxGeometry x="2030" y="1343" width="950" height="580" as="geometry" />
        </mxCell>
        <mxCell id="Bjhl5JZfNS0OBteokcuS-74" value="" style="rounded=1;whiteSpace=wrap;html=1;fillColor=#6666FF;gradientColor=#FFD966;strokeColor=#996185;" vertex="1" parent="1">
          <mxGeometry x="2040" y="1353" width="930" height="550" as="geometry" />
        </mxCell>
        <mxCell id="Bjhl5JZfNS0OBteokcuS-77" value="" style="ellipse;whiteSpace=wrap;html=1;aspect=fixed;fillColor=#000000;" vertex="1" parent="1">
          <mxGeometry x="2505" y="1370" width="10" height="10" as="geometry" />
        </mxCell>
        <mxCell id="Bjhl5JZfNS0OBteokcuS-79" value="&lt;h1&gt;&lt;font style=&quot;font-size: 29px;&quot; face=&quot;Times New Roman&quot;&gt;CADASTRO DO PRODUTO&lt;/font&gt;&lt;/h1&gt;" style="text;html=1;align=center;verticalAlign=middle;whiteSpace=wrap;rounded=0;" vertex="1" parent="1">
          <mxGeometry x="2287.5" y="1410" width="445" height="30" as="geometry" />
        </mxCell>
        <mxCell id="Bjhl5JZfNS0OBteokcuS-97" value="&lt;font style=&quot;font-size: 16px;&quot;&gt;NOME DO PRODUTO:&lt;/font&gt;" style="text;html=1;align=center;verticalAlign=middle;whiteSpace=wrap;rounded=0;" vertex="1" parent="1">
          <mxGeometry x="2110" y="1495.5" width="170" height="35" as="geometry" />
        </mxCell>
        <mxCell id="Bjhl5JZfNS0OBteokcuS-98" value="" style="rounded=1;whiteSpace=wrap;html=1;" vertex="1" parent="1">
          <mxGeometry x="2110" y="1532" width="380" height="30" as="geometry" />
        </mxCell>
        <mxCell id="Bjhl5JZfNS0OBteokcuS-100" value="&lt;font style=&quot;font-size: 16px;&quot;&gt;CUSTO:&lt;/font&gt;" style="text;html=1;align=center;verticalAlign=middle;whiteSpace=wrap;rounded=0;" vertex="1" parent="1">
          <mxGeometry x="2110" y="1587" width="60" height="35" as="geometry" />
        </mxCell>
        <mxCell id="Bjhl5JZfNS0OBteokcuS-101" value="" style="rounded=1;whiteSpace=wrap;html=1;" vertex="1" parent="1">
          <mxGeometry x="2110" y="1622" width="380" height="30" as="geometry" />
        </mxCell>
        <mxCell id="Bjhl5JZfNS0OBteokcuS-102" value="&lt;font style=&quot;font-size: 16px;&quot;&gt;PREÇO:&lt;/font&gt;" style="text;html=1;align=center;verticalAlign=middle;whiteSpace=wrap;rounded=0;" vertex="1" parent="1">
          <mxGeometry x="2560" y="1498" width="60" height="35" as="geometry" />
        </mxCell>
        <mxCell id="Bjhl5JZfNS0OBteokcuS-105" value="" style="rounded=1;whiteSpace=wrap;html=1;" vertex="1" parent="1">
          <mxGeometry x="2560" y="1530.5" width="380" height="30" as="geometry" />
        </mxCell>
        <mxCell id="Bjhl5JZfNS0OBteokcuS-106" value="&lt;font style=&quot;font-size: 16px;&quot;&gt;TEMPO DE PRODUÇÃO:&lt;/font&gt;" style="text;html=1;align=left;verticalAlign=middle;whiteSpace=wrap;rounded=0;" vertex="1" parent="1">
          <mxGeometry x="2560" y="1583" width="200" height="35" as="geometry" />
        </mxCell>
        <mxCell id="Bjhl5JZfNS0OBteokcuS-107" value="" style="rounded=1;whiteSpace=wrap;html=1;" vertex="1" parent="1">
          <mxGeometry x="2560" y="1618" width="380" height="30" as="geometry" />
        </mxCell>
        <mxCell id="Bjhl5JZfNS0OBteokcuS-108" value="&lt;font style=&quot;font-size: 19px;&quot;&gt;FEITO&lt;/font&gt;" style="rounded=1;whiteSpace=wrap;html=1;" vertex="1" parent="1">
          <mxGeometry x="2412.5" y="1820" width="225" height="50" as="geometry" />
        </mxCell>
        <mxCell id="Bjhl5JZfNS0OBteokcuS-197" value="" style="edgeStyle=orthogonalEdgeStyle;rounded=0;orthogonalLoop=1;jettySize=auto;html=1;" edge="1" parent="1" source="Bjhl5JZfNS0OBteokcuS-198" target="Bjhl5JZfNS0OBteokcuS-200">
          <mxGeometry relative="1" as="geometry" />
        </mxCell>
        <mxCell id="Bjhl5JZfNS0OBteokcuS-198" value="INÍCIO" style="ellipse;whiteSpace=wrap;html=1;fillColor=#d80073;fontColor=#ffffff;strokeColor=#FF99CC;shadow=1;" vertex="1" parent="1">
          <mxGeometry x="-140" y="2384" width="120" height="80" as="geometry" />
        </mxCell>
        <mxCell id="Bjhl5JZfNS0OBteokcuS-199" style="edgeStyle=orthogonalEdgeStyle;rounded=0;orthogonalLoop=1;jettySize=auto;html=1;" edge="1" parent="1" source="Bjhl5JZfNS0OBteokcuS-200" target="Bjhl5JZfNS0OBteokcuS-202">
          <mxGeometry relative="1" as="geometry" />
        </mxCell>
        <mxCell id="Bjhl5JZfNS0OBteokcuS-200" value="LISTAR FORNECEDOR" style="whiteSpace=wrap;html=1;fillColor=#d80073;strokeColor=#FF99CC;fontColor=#ffffff;shadow=1;" vertex="1" parent="1">
          <mxGeometry x="90" y="2394" width="120" height="60" as="geometry" />
        </mxCell>
        <mxCell id="Bjhl5JZfNS0OBteokcuS-201" style="edgeStyle=orthogonalEdgeStyle;rounded=0;orthogonalLoop=1;jettySize=auto;html=1;" edge="1" parent="1" source="Bjhl5JZfNS0OBteokcuS-202" target="Bjhl5JZfNS0OBteokcuS-211">
          <mxGeometry relative="1" as="geometry" />
        </mxCell>
        <mxCell id="Bjhl5JZfNS0OBteokcuS-202" value="BUSCAR FORNECEDOR&amp;nbsp;" style="whiteSpace=wrap;html=1;fillColor=#d80073;strokeColor=#FF99CC;fontColor=#ffffff;shadow=1;" vertex="1" parent="1">
          <mxGeometry x="345" y="2394" width="120" height="60" as="geometry" />
        </mxCell>
        <mxCell id="Bjhl5JZfNS0OBteokcuS-203" style="edgeStyle=orthogonalEdgeStyle;rounded=0;orthogonalLoop=1;jettySize=auto;html=1;entryX=0;entryY=0.5;entryDx=0;entryDy=0;" edge="1" parent="1" source="Bjhl5JZfNS0OBteokcuS-204" target="Bjhl5JZfNS0OBteokcuS-226">
          <mxGeometry relative="1" as="geometry" />
        </mxCell>
        <mxCell id="Bjhl5JZfNS0OBteokcuS-204" value="ATUALIZAR FORNECEDOR" style="whiteSpace=wrap;html=1;fillColor=#d80073;strokeColor=#FF99CC;fontColor=#ffffff;shadow=1;" vertex="1" parent="1">
          <mxGeometry x="-140" y="2673" width="120" height="60" as="geometry" />
        </mxCell>
        <mxCell id="Bjhl5JZfNS0OBteokcuS-205" style="edgeStyle=orthogonalEdgeStyle;rounded=0;orthogonalLoop=1;jettySize=auto;html=1;entryX=0;entryY=0.5;entryDx=0;entryDy=0;" edge="1" parent="1" source="Bjhl5JZfNS0OBteokcuS-206" target="Bjhl5JZfNS0OBteokcuS-226">
          <mxGeometry relative="1" as="geometry" />
        </mxCell>
        <mxCell id="Bjhl5JZfNS0OBteokcuS-206" value="EXCLUIR FORNECEDOR" style="whiteSpace=wrap;html=1;fillColor=#d80073;strokeColor=#FF99CC;fontColor=#ffffff;shadow=1;" vertex="1" parent="1">
          <mxGeometry x="-140" y="2843" width="120" height="60" as="geometry" />
        </mxCell>
        <mxCell id="Bjhl5JZfNS0OBteokcuS-207" style="edgeStyle=orthogonalEdgeStyle;rounded=0;orthogonalLoop=1;jettySize=auto;html=1;entryX=0.5;entryY=0;entryDx=0;entryDy=0;" edge="1" parent="1" source="Bjhl5JZfNS0OBteokcuS-211" target="Bjhl5JZfNS0OBteokcuS-216">
          <mxGeometry relative="1" as="geometry" />
        </mxCell>
        <mxCell id="Bjhl5JZfNS0OBteokcuS-208" value="NÃO" style="edgeLabel;html=1;align=center;verticalAlign=middle;resizable=0;points=[];" vertex="1" connectable="0" parent="Bjhl5JZfNS0OBteokcuS-207">
          <mxGeometry x="0.3235" relative="1" as="geometry">
            <mxPoint y="1" as="offset" />
          </mxGeometry>
        </mxCell>
        <mxCell id="Bjhl5JZfNS0OBteokcuS-209" style="edgeStyle=orthogonalEdgeStyle;rounded=0;orthogonalLoop=1;jettySize=auto;html=1;" edge="1" parent="1" source="Bjhl5JZfNS0OBteokcuS-211" target="Bjhl5JZfNS0OBteokcuS-226">
          <mxGeometry relative="1" as="geometry" />
        </mxCell>
        <mxCell id="Bjhl5JZfNS0OBteokcuS-210" value="SIM" style="edgeLabel;html=1;align=center;verticalAlign=middle;resizable=0;points=[];" vertex="1" connectable="0" parent="Bjhl5JZfNS0OBteokcuS-209">
          <mxGeometry x="-0.3805" relative="1" as="geometry">
            <mxPoint as="offset" />
          </mxGeometry>
        </mxCell>
        <mxCell id="Bjhl5JZfNS0OBteokcuS-211" value="FORNCEDOR CADASTRADO?" style="rhombus;whiteSpace=wrap;html=1;fillColor=#d80073;strokeColor=#FF99CC;fontColor=#ffffff;shadow=1;" vertex="1" parent="1">
          <mxGeometry x="350" y="2544" width="110" height="100" as="geometry" />
        </mxCell>
        <mxCell id="Bjhl5JZfNS0OBteokcuS-212" style="edgeStyle=orthogonalEdgeStyle;rounded=0;orthogonalLoop=1;jettySize=auto;html=1;entryX=0.5;entryY=0;entryDx=0;entryDy=0;" edge="1" parent="1" source="Bjhl5JZfNS0OBteokcuS-216" target="Bjhl5JZfNS0OBteokcuS-231">
          <mxGeometry relative="1" as="geometry" />
        </mxCell>
        <mxCell id="Bjhl5JZfNS0OBteokcuS-213" style="edgeStyle=orthogonalEdgeStyle;rounded=0;orthogonalLoop=1;jettySize=auto;html=1;entryX=0.5;entryY=0;entryDx=0;entryDy=0;" edge="1" parent="1" source="Bjhl5JZfNS0OBteokcuS-216" target="Bjhl5JZfNS0OBteokcuS-235">
          <mxGeometry relative="1" as="geometry">
            <Array as="points">
              <mxPoint x="590" y="2754" />
              <mxPoint x="360" y="2754" />
            </Array>
          </mxGeometry>
        </mxCell>
        <mxCell id="Bjhl5JZfNS0OBteokcuS-214" style="edgeStyle=orthogonalEdgeStyle;rounded=0;orthogonalLoop=1;jettySize=auto;html=1;entryX=0.5;entryY=0;entryDx=0;entryDy=0;" edge="1" parent="1" source="Bjhl5JZfNS0OBteokcuS-216" target="Bjhl5JZfNS0OBteokcuS-233">
          <mxGeometry relative="1" as="geometry">
            <Array as="points">
              <mxPoint x="590" y="2754" />
              <mxPoint x="475" y="2754" />
            </Array>
          </mxGeometry>
        </mxCell>
        <mxCell id="Bjhl5JZfNS0OBteokcuS-215" style="edgeStyle=orthogonalEdgeStyle;rounded=0;orthogonalLoop=1;jettySize=auto;html=1;entryX=0.5;entryY=0;entryDx=0;entryDy=0;" edge="1" parent="1" source="Bjhl5JZfNS0OBteokcuS-216" target="Bjhl5JZfNS0OBteokcuS-229">
          <mxGeometry relative="1" as="geometry">
            <Array as="points">
              <mxPoint x="590" y="2754" />
              <mxPoint x="710" y="2754" />
            </Array>
          </mxGeometry>
        </mxCell>
        <mxCell id="Bjhl5JZfNS0OBteokcuS-216" value="CADASTRAR FORNECEDOR" style="whiteSpace=wrap;html=1;fillColor=#d80073;strokeColor=#FF99CC;fontColor=#ffffff;shadow=1;" vertex="1" parent="1">
          <mxGeometry x="530" y="2664" width="120" height="60" as="geometry" />
        </mxCell>
        <mxCell id="Bjhl5JZfNS0OBteokcuS-217" value="" style="edgeStyle=orthogonalEdgeStyle;rounded=0;orthogonalLoop=1;jettySize=auto;html=1;" edge="1" parent="1" source="Bjhl5JZfNS0OBteokcuS-219" target="Bjhl5JZfNS0OBteokcuS-221">
          <mxGeometry relative="1" as="geometry" />
        </mxCell>
        <mxCell id="Bjhl5JZfNS0OBteokcuS-218" value="NÃO" style="edgeLabel;html=1;align=center;verticalAlign=middle;resizable=0;points=[];" vertex="1" connectable="0" parent="Bjhl5JZfNS0OBteokcuS-217">
          <mxGeometry x="-0.1456" relative="1" as="geometry">
            <mxPoint as="offset" />
          </mxGeometry>
        </mxCell>
        <mxCell id="Bjhl5JZfNS0OBteokcuS-219" value="DADOS&amp;nbsp; VÁLIDOS?" style="rhombus;whiteSpace=wrap;html=1;fillColor=#d80073;strokeColor=#FF99CC;fontColor=#ffffff;shadow=1;" vertex="1" parent="1">
          <mxGeometry x="887.5" y="2684" width="105" height="100" as="geometry" />
        </mxCell>
        <mxCell id="Bjhl5JZfNS0OBteokcuS-220" style="edgeStyle=orthogonalEdgeStyle;rounded=0;orthogonalLoop=1;jettySize=auto;html=1;entryX=0;entryY=1;entryDx=0;entryDy=0;" edge="1" parent="1" source="Bjhl5JZfNS0OBteokcuS-221" target="Bjhl5JZfNS0OBteokcuS-226">
          <mxGeometry relative="1" as="geometry">
            <Array as="points">
              <mxPoint x="1150" y="2574" />
              <mxPoint x="1150" y="3171" />
              <mxPoint x="122" y="3171" />
            </Array>
          </mxGeometry>
        </mxCell>
        <mxCell id="Bjhl5JZfNS0OBteokcuS-221" value="MOSTRAR ERRO&amp;nbsp;" style="whiteSpace=wrap;html=1;fillColor=#d80073;strokeColor=#FF99CC;fontColor=#ffffff;shadow=1;" vertex="1" parent="1">
          <mxGeometry x="880" y="2544" width="120" height="60" as="geometry" />
        </mxCell>
        <mxCell id="Bjhl5JZfNS0OBteokcuS-222" style="edgeStyle=orthogonalEdgeStyle;rounded=0;orthogonalLoop=1;jettySize=auto;html=1;entryX=0.5;entryY=0;entryDx=0;entryDy=0;" edge="1" parent="1" source="Bjhl5JZfNS0OBteokcuS-226" target="Bjhl5JZfNS0OBteokcuS-227">
          <mxGeometry relative="1" as="geometry">
            <Array as="points">
              <mxPoint x="250" y="2873" />
            </Array>
          </mxGeometry>
        </mxCell>
        <mxCell id="Bjhl5JZfNS0OBteokcuS-223" value="SIM" style="edgeLabel;html=1;align=center;verticalAlign=middle;resizable=0;points=[];" vertex="1" connectable="0" parent="Bjhl5JZfNS0OBteokcuS-222">
          <mxGeometry x="0.1115" y="-1" relative="1" as="geometry">
            <mxPoint y="-1" as="offset" />
          </mxGeometry>
        </mxCell>
        <mxCell id="Bjhl5JZfNS0OBteokcuS-224" style="edgeStyle=orthogonalEdgeStyle;rounded=0;orthogonalLoop=1;jettySize=auto;html=1;entryX=1;entryY=0.5;entryDx=0;entryDy=0;" edge="1" parent="1" source="Bjhl5JZfNS0OBteokcuS-226" target="Bjhl5JZfNS0OBteokcuS-202">
          <mxGeometry relative="1" as="geometry">
            <Array as="points">
              <mxPoint x="150" y="3111" />
              <mxPoint x="1110" y="3111" />
              <mxPoint x="1110" y="2424" />
            </Array>
          </mxGeometry>
        </mxCell>
        <mxCell id="Bjhl5JZfNS0OBteokcuS-225" value="NÃO" style="edgeLabel;html=1;align=center;verticalAlign=middle;resizable=0;points=[];" vertex="1" connectable="0" parent="Bjhl5JZfNS0OBteokcuS-224">
          <mxGeometry x="-0.8994" y="1" relative="1" as="geometry">
            <mxPoint y="-1" as="offset" />
          </mxGeometry>
        </mxCell>
        <mxCell id="Bjhl5JZfNS0OBteokcuS-226" value="FORNECEDOR ENCONTRADO?" style="rhombus;whiteSpace=wrap;html=1;fillColor=#d80073;strokeColor=#FF99CC;fontColor=#ffffff;shadow=1;" vertex="1" parent="1">
          <mxGeometry x="95" y="2823" width="110" height="98" as="geometry" />
        </mxCell>
        <mxCell id="Bjhl5JZfNS0OBteokcuS-227" value="FIM" style="ellipse;whiteSpace=wrap;html=1;fillColor=#d80073;fontColor=#ffffff;strokeColor=#FF99CC;shadow=1;" vertex="1" parent="1">
          <mxGeometry x="190" y="2971" width="120" height="80" as="geometry" />
        </mxCell>
        <mxCell id="Bjhl5JZfNS0OBteokcuS-228" style="edgeStyle=orthogonalEdgeStyle;rounded=0;orthogonalLoop=1;jettySize=auto;html=1;entryX=0.5;entryY=1;entryDx=0;entryDy=0;" edge="1" parent="1" source="Bjhl5JZfNS0OBteokcuS-229" target="Bjhl5JZfNS0OBteokcuS-219">
          <mxGeometry relative="1" as="geometry">
            <Array as="points">
              <mxPoint x="710" y="2894" />
              <mxPoint x="940" y="2894" />
            </Array>
          </mxGeometry>
        </mxCell>
        <mxCell id="Bjhl5JZfNS0OBteokcuS-229" value="TIPO DE FORNECIMENTO" style="rounded=0;whiteSpace=wrap;html=1;fillColor=#d80073;fontColor=#ffffff;strokeColor=#A50040;" vertex="1" parent="1">
          <mxGeometry x="660" y="2794" width="100" height="40" as="geometry" />
        </mxCell>
        <mxCell id="Bjhl5JZfNS0OBteokcuS-230" style="edgeStyle=orthogonalEdgeStyle;rounded=0;orthogonalLoop=1;jettySize=auto;html=1;entryX=0.5;entryY=1;entryDx=0;entryDy=0;" edge="1" parent="1" source="Bjhl5JZfNS0OBteokcuS-231" target="Bjhl5JZfNS0OBteokcuS-219">
          <mxGeometry relative="1" as="geometry">
            <Array as="points">
              <mxPoint x="590" y="2894" />
              <mxPoint x="940" y="2894" />
            </Array>
          </mxGeometry>
        </mxCell>
        <mxCell id="Bjhl5JZfNS0OBteokcuS-231" value="E-MAIL" style="rounded=0;whiteSpace=wrap;html=1;fillColor=#d80073;fontColor=#ffffff;strokeColor=#A50040;" vertex="1" parent="1">
          <mxGeometry x="540" y="2794" width="100" height="40" as="geometry" />
        </mxCell>
        <mxCell id="Bjhl5JZfNS0OBteokcuS-232" style="edgeStyle=orthogonalEdgeStyle;rounded=0;orthogonalLoop=1;jettySize=auto;html=1;entryX=0.5;entryY=1;entryDx=0;entryDy=0;" edge="1" parent="1" source="Bjhl5JZfNS0OBteokcuS-233" target="Bjhl5JZfNS0OBteokcuS-219">
          <mxGeometry relative="1" as="geometry">
            <Array as="points">
              <mxPoint x="475" y="2894" />
              <mxPoint x="940" y="2894" />
            </Array>
          </mxGeometry>
        </mxCell>
        <mxCell id="Bjhl5JZfNS0OBteokcuS-233" value="TELEFONE" style="rounded=0;whiteSpace=wrap;html=1;fillColor=#d80073;fontColor=#ffffff;strokeColor=#A50040;" vertex="1" parent="1">
          <mxGeometry x="425" y="2794" width="100" height="40" as="geometry" />
        </mxCell>
        <mxCell id="Bjhl5JZfNS0OBteokcuS-234" style="edgeStyle=orthogonalEdgeStyle;rounded=0;orthogonalLoop=1;jettySize=auto;html=1;" edge="1" parent="1" source="Bjhl5JZfNS0OBteokcuS-235" target="Bjhl5JZfNS0OBteokcuS-219">
          <mxGeometry relative="1" as="geometry">
            <Array as="points">
              <mxPoint x="360" y="2894" />
              <mxPoint x="940" y="2894" />
            </Array>
          </mxGeometry>
        </mxCell>
        <mxCell id="Bjhl5JZfNS0OBteokcuS-235" value="NOME&lt;div&gt;DO FORNECEDOR&lt;/div&gt;" style="rounded=0;whiteSpace=wrap;html=1;fillColor=#d80073;fontColor=#ffffff;strokeColor=#A50040;" vertex="1" parent="1">
          <mxGeometry x="310" y="2794" width="100" height="40" as="geometry" />
        </mxCell>
        <mxCell id="Bjhl5JZfNS0OBteokcuS-236" style="edgeStyle=orthogonalEdgeStyle;rounded=0;orthogonalLoop=1;jettySize=auto;html=1;entryX=1;entryY=0.5;entryDx=0;entryDy=0;exitX=1;exitY=0.5;exitDx=0;exitDy=0;" edge="1" parent="1" source="Bjhl5JZfNS0OBteokcuS-219" target="Bjhl5JZfNS0OBteokcuS-227">
          <mxGeometry relative="1" as="geometry">
            <mxPoint x="950" y="2791" as="sourcePoint" />
            <Array as="points">
              <mxPoint x="1070" y="2734" />
              <mxPoint x="1070" y="3011" />
            </Array>
          </mxGeometry>
        </mxCell>
        <mxCell id="Bjhl5JZfNS0OBteokcuS-237" value="SIM" style="edgeLabel;html=1;align=center;verticalAlign=middle;resizable=0;points=[];" vertex="1" connectable="0" parent="Bjhl5JZfNS0OBteokcuS-236">
          <mxGeometry x="-0.6938" relative="1" as="geometry">
            <mxPoint as="offset" />
          </mxGeometry>
        </mxCell>
        <mxCell id="Bjhl5JZfNS0OBteokcuS-238" value="&lt;h2&gt;&lt;font style=&quot;font-size: 31px;&quot; face=&quot;Garamond&quot;&gt;FLUXOGRAMA CADASTRO FORNECEDOR&lt;/font&gt;&lt;/h2&gt;" style="text;html=1;align=center;verticalAlign=middle;resizable=0;points=[];autosize=1;strokeColor=none;fillColor=none;" vertex="1" parent="1">
          <mxGeometry x="365" y="2230" width="650" height="80" as="geometry" />
        </mxCell>
        <mxCell id="Bjhl5JZfNS0OBteokcuS-242" style="edgeStyle=orthogonalEdgeStyle;rounded=0;orthogonalLoop=1;jettySize=auto;html=1;entryX=0.5;entryY=1;entryDx=0;entryDy=0;" edge="1" parent="1" source="Bjhl5JZfNS0OBteokcuS-239" target="cEaKdVTYvAvty1d2w6ZT-17">
          <mxGeometry relative="1" as="geometry">
            <Array as="points">
              <mxPoint x="820" y="1790" />
              <mxPoint x="930" y="1790" />
            </Array>
          </mxGeometry>
        </mxCell>
        <mxCell id="Bjhl5JZfNS0OBteokcuS-239" value="QUANTIDADE" style="rounded=0;whiteSpace=wrap;html=1;fillColor=#d80073;fontColor=#ffffff;strokeColor=#A50040;" vertex="1" parent="1">
          <mxGeometry x="770" y="1683" width="100" height="40" as="geometry" />
        </mxCell>
        <mxCell id="Bjhl5JZfNS0OBteokcuS-244" value="" style="rounded=1;whiteSpace=wrap;html=1;" vertex="1" parent="1">
          <mxGeometry x="1540" y="2937" width="280" height="40" as="geometry" />
        </mxCell>
        <mxCell id="Bjhl5JZfNS0OBteokcuS-245" value="&lt;span style=&quot;font-size: 14px;&quot;&gt;&lt;font color=&quot;#ffffff&quot;&gt;QUANTIDADE:&lt;/font&gt;&lt;/span&gt;" style="text;html=1;align=left;verticalAlign=middle;whiteSpace=wrap;rounded=0;" vertex="1" parent="1">
          <mxGeometry x="1540" y="2910" width="200" height="35" as="geometry" />
        </mxCell>
        <mxCell id="Bjhl5JZfNS0OBteokcuS-247" value="&lt;span style=&quot;font-size: 16px;&quot;&gt;COR:&lt;/span&gt;" style="text;html=1;align=left;verticalAlign=middle;whiteSpace=wrap;rounded=0;" vertex="1" parent="1">
          <mxGeometry x="2110" y="1685.5" width="60" height="35" as="geometry" />
        </mxCell>
        <mxCell id="Bjhl5JZfNS0OBteokcuS-248" value="&lt;span style=&quot;font-size: 16px;&quot;&gt;QUANTIDADE:&lt;/span&gt;" style="text;html=1;align=left;verticalAlign=middle;whiteSpace=wrap;rounded=0;" vertex="1" parent="1">
          <mxGeometry x="2560" y="1684" width="200" height="35" as="geometry" />
        </mxCell>
        <mxCell id="Bjhl5JZfNS0OBteokcuS-249" value="" style="rounded=1;whiteSpace=wrap;html=1;" vertex="1" parent="1">
          <mxGeometry x="2110" y="1719" width="380" height="30" as="geometry" />
        </mxCell>
        <mxCell id="Bjhl5JZfNS0OBteokcuS-250" value="" style="rounded=1;whiteSpace=wrap;html=1;" vertex="1" parent="1">
          <mxGeometry x="2560" y="1719" width="380" height="30" as="geometry" />
        </mxCell>
        <mxCell id="Bjhl5JZfNS0OBteokcuS-251" value="" style="rounded=1;whiteSpace=wrap;html=1;direction=south;fillColor=#050505;" vertex="1" parent="1">
          <mxGeometry x="1515" y="1353" width="350" height="700" as="geometry" />
        </mxCell>
        <mxCell id="Bjhl5JZfNS0OBteokcuS-252" value="&lt;h6&gt;&lt;br&gt;&lt;/h6&gt;" style="rounded=1;whiteSpace=wrap;html=1;direction=south;fillColor=#FFD966;gradientColor=#6666FF;strokeColor=#996185;" vertex="1" parent="1">
          <mxGeometry x="1525" y="1363" width="330" height="680" as="geometry" />
        </mxCell>
        <mxCell id="Bjhl5JZfNS0OBteokcuS-253" value="" style="ellipse;whiteSpace=wrap;html=1;aspect=fixed;fillColor=#000000;" vertex="1" parent="1">
          <mxGeometry x="1685" y="1370" width="10" height="10" as="geometry" />
        </mxCell>
        <mxCell id="Bjhl5JZfNS0OBteokcuS-254" value="&lt;h2&gt;&lt;font style=&quot;font-size: 22px;&quot; face=&quot;Times New Roman&quot;&gt;CADASTRO DO PRODUTO&lt;/font&gt;&lt;/h2&gt;" style="text;html=1;align=center;verticalAlign=middle;whiteSpace=wrap;rounded=0;" vertex="1" parent="1">
          <mxGeometry x="1545" y="1393" width="290" height="50" as="geometry" />
        </mxCell>
        <mxCell id="Bjhl5JZfNS0OBteokcuS-255" value="&lt;span style=&quot;font-size: 14px;&quot;&gt;NOME DO PRODUTO:&lt;/span&gt;" style="text;html=1;align=center;verticalAlign=middle;whiteSpace=wrap;rounded=0;" vertex="1" parent="1">
          <mxGeometry x="1550" y="1450" width="150" height="35" as="geometry" />
        </mxCell>
        <mxCell id="Bjhl5JZfNS0OBteokcuS-256" value="" style="rounded=1;whiteSpace=wrap;html=1;" vertex="1" parent="1">
          <mxGeometry x="1550" y="1480" width="280" height="40" as="geometry" />
        </mxCell>
        <mxCell id="Bjhl5JZfNS0OBteokcuS-257" value="&lt;span style=&quot;font-size: 14px;&quot;&gt;CUSTO:&lt;/span&gt;" style="text;html=1;align=center;verticalAlign=middle;whiteSpace=wrap;rounded=0;" vertex="1" parent="1">
          <mxGeometry x="1550" y="1535.5" width="60" height="35" as="geometry" />
        </mxCell>
        <mxCell id="Bjhl5JZfNS0OBteokcuS-258" value="&lt;span style=&quot;font-size: 14px;&quot;&gt;PREÇO:&lt;/span&gt;" style="text;html=1;align=center;verticalAlign=middle;whiteSpace=wrap;rounded=0;" vertex="1" parent="1">
          <mxGeometry x="1550" y="1613" width="60" height="35" as="geometry" />
        </mxCell>
        <mxCell id="Bjhl5JZfNS0OBteokcuS-259" value="&lt;span style=&quot;font-size: 14px;&quot;&gt;TEMPO DE PRODUÇÃO:&lt;/span&gt;" style="text;html=1;align=left;verticalAlign=middle;whiteSpace=wrap;rounded=0;" vertex="1" parent="1">
          <mxGeometry x="1550" y="1698" width="200" height="35" as="geometry" />
        </mxCell>
        <mxCell id="Bjhl5JZfNS0OBteokcuS-260" value="" style="rounded=1;whiteSpace=wrap;html=1;" vertex="1" parent="1">
          <mxGeometry x="1550" y="1563" width="280" height="40" as="geometry" />
        </mxCell>
        <mxCell id="Bjhl5JZfNS0OBteokcuS-261" value="" style="rounded=1;whiteSpace=wrap;html=1;" vertex="1" parent="1">
          <mxGeometry x="1550" y="1643" width="280" height="40" as="geometry" />
        </mxCell>
        <mxCell id="Bjhl5JZfNS0OBteokcuS-262" value="" style="rounded=1;whiteSpace=wrap;html=1;" vertex="1" parent="1">
          <mxGeometry x="1550" y="1724" width="280" height="40" as="geometry" />
        </mxCell>
        <mxCell id="Bjhl5JZfNS0OBteokcuS-263" value="&lt;span style=&quot;font-size: 15px;&quot;&gt;FEITO&lt;/span&gt;" style="rounded=1;whiteSpace=wrap;html=1;" vertex="1" parent="1">
          <mxGeometry x="1594.38" y="1980" width="181.25" height="40" as="geometry" />
        </mxCell>
        <mxCell id="Bjhl5JZfNS0OBteokcuS-264" value="&lt;span style=&quot;font-size: 14px;&quot;&gt;COR:&lt;/span&gt;" style="text;html=1;align=left;verticalAlign=middle;whiteSpace=wrap;rounded=0;" vertex="1" parent="1">
          <mxGeometry x="1550" y="1780" width="200" height="35" as="geometry" />
        </mxCell>
        <mxCell id="Bjhl5JZfNS0OBteokcuS-265" value="" style="rounded=1;whiteSpace=wrap;html=1;" vertex="1" parent="1">
          <mxGeometry x="1550" y="1810" width="280" height="40" as="geometry" />
        </mxCell>
        <mxCell id="Bjhl5JZfNS0OBteokcuS-266" value="&lt;span style=&quot;font-size: 14px;&quot;&gt;QUANTIDADE:&lt;/span&gt;" style="text;html=1;align=left;verticalAlign=middle;whiteSpace=wrap;rounded=0;" vertex="1" parent="1">
          <mxGeometry x="1550" y="1860" width="200" height="35" as="geometry" />
        </mxCell>
        <mxCell id="Bjhl5JZfNS0OBteokcuS-267" value="" style="rounded=1;whiteSpace=wrap;html=1;" vertex="1" parent="1">
          <mxGeometry x="1550" y="1890" width="280" height="40" as="geometry" />
        </mxCell>
        <mxCell id="Bjhl5JZfNS0OBteokcuS-270" value="" style="rounded=1;whiteSpace=wrap;html=1;fillColor=#000000;" vertex="1" parent="1">
          <mxGeometry x="2040" y="2484" width="950" height="580" as="geometry" />
        </mxCell>
        <mxCell id="Bjhl5JZfNS0OBteokcuS-271" value="" style="rounded=1;whiteSpace=wrap;html=1;fillColor=#6666FF;gradientColor=#FF3333;strokeColor=#996185;" vertex="1" parent="1">
          <mxGeometry x="2050" y="2494" width="930" height="550" as="geometry" />
        </mxCell>
        <mxCell id="Bjhl5JZfNS0OBteokcuS-272" value="" style="ellipse;whiteSpace=wrap;html=1;aspect=fixed;fillColor=#000000;" vertex="1" parent="1">
          <mxGeometry x="2515" y="2511" width="10" height="10" as="geometry" />
        </mxCell>
        <mxCell id="Bjhl5JZfNS0OBteokcuS-273" value="&lt;h1&gt;&lt;font style=&quot;font-size: 29px;&quot; face=&quot;Times New Roman&quot;&gt;CADASTRO DO FORNECEDOR&lt;/font&gt;&lt;/h1&gt;" style="text;html=1;align=center;verticalAlign=middle;whiteSpace=wrap;rounded=0;" vertex="1" parent="1">
          <mxGeometry x="2297.5" y="2551" width="445" height="30" as="geometry" />
        </mxCell>
        <mxCell id="Bjhl5JZfNS0OBteokcuS-274" value="&lt;font color=&quot;#ffffff&quot; style=&quot;font-size: 16px;&quot;&gt;NOME DO FORNECEDOR:&lt;/font&gt;" style="text;html=1;align=left;verticalAlign=middle;whiteSpace=wrap;rounded=0;" vertex="1" parent="1">
          <mxGeometry x="2120" y="2636.5" width="220" height="35" as="geometry" />
        </mxCell>
        <mxCell id="Bjhl5JZfNS0OBteokcuS-275" value="" style="rounded=1;whiteSpace=wrap;html=1;" vertex="1" parent="1">
          <mxGeometry x="2120" y="2673" width="380" height="30" as="geometry" />
        </mxCell>
        <mxCell id="Bjhl5JZfNS0OBteokcuS-276" value="&lt;span style=&quot;font-size: 16px;&quot;&gt;&lt;font color=&quot;#ffffff&quot;&gt;E-MAIL:&lt;/font&gt;&lt;/span&gt;" style="text;html=1;align=center;verticalAlign=middle;whiteSpace=wrap;rounded=0;" vertex="1" parent="1">
          <mxGeometry x="2120" y="2728" width="70" height="35" as="geometry" />
        </mxCell>
        <mxCell id="Bjhl5JZfNS0OBteokcuS-277" value="" style="rounded=1;whiteSpace=wrap;html=1;" vertex="1" parent="1">
          <mxGeometry x="2120" y="2763" width="380" height="30" as="geometry" />
        </mxCell>
        <mxCell id="Bjhl5JZfNS0OBteokcuS-278" value="&lt;span style=&quot;font-size: 16px;&quot;&gt;&lt;font color=&quot;#ffffff&quot;&gt;TELEFONE:&lt;/font&gt;&lt;/span&gt;" style="text;html=1;align=left;verticalAlign=middle;whiteSpace=wrap;rounded=0;" vertex="1" parent="1">
          <mxGeometry x="2570" y="2639" width="150" height="35" as="geometry" />
        </mxCell>
        <mxCell id="Bjhl5JZfNS0OBteokcuS-279" value="" style="rounded=1;whiteSpace=wrap;html=1;" vertex="1" parent="1">
          <mxGeometry x="2570" y="2671.5" width="380" height="30" as="geometry" />
        </mxCell>
        <mxCell id="Bjhl5JZfNS0OBteokcuS-280" value="&lt;span style=&quot;font-size: 16px;&quot;&gt;&lt;font color=&quot;#ffffff&quot;&gt;TIPO DE FORNECIMENTO:&lt;/font&gt;&lt;/span&gt;" style="text;html=1;align=left;verticalAlign=middle;whiteSpace=wrap;rounded=0;" vertex="1" parent="1">
          <mxGeometry x="2570" y="2724" width="350" height="35" as="geometry" />
        </mxCell>
        <mxCell id="Bjhl5JZfNS0OBteokcuS-281" value="" style="rounded=1;whiteSpace=wrap;html=1;" vertex="1" parent="1">
          <mxGeometry x="2570" y="2759" width="380" height="30" as="geometry" />
        </mxCell>
        <mxCell id="Bjhl5JZfNS0OBteokcuS-282" value="&lt;font style=&quot;font-size: 19px;&quot;&gt;FEITO&lt;/font&gt;" style="rounded=1;whiteSpace=wrap;html=1;" vertex="1" parent="1">
          <mxGeometry x="2422.5" y="2961" width="225" height="50" as="geometry" />
        </mxCell>
        <mxCell id="Bjhl5JZfNS0OBteokcuS-284" value="&lt;span style=&quot;font-size: 16px;&quot;&gt;&lt;font color=&quot;#ffffff&quot;&gt;QUANTIDADE:&lt;/font&gt;&lt;/span&gt;" style="text;html=1;align=left;verticalAlign=middle;whiteSpace=wrap;rounded=0;" vertex="1" parent="1">
          <mxGeometry x="2120" y="2825" width="200" height="35" as="geometry" />
        </mxCell>
        <mxCell id="Bjhl5JZfNS0OBteokcuS-285" value="" style="rounded=1;whiteSpace=wrap;html=1;" vertex="1" parent="1">
          <mxGeometry x="2120" y="2860" width="380" height="30" as="geometry" />
        </mxCell>
      </root>
    </mxGraphModel>
  </diagram>
</mxfile>
